<?xml version="1.0" encoding="UTF-8" standalone="no"?>
<!-- Created with Inkscape (http://www.inkscape.org/) -->

<svg
   xmlns:dc="http://purl.org/dc/elements/1.1/"
   xmlns:cc="http://creativecommons.org/ns#"
   xmlns:rdf="http://www.w3.org/1999/02/22-rdf-syntax-ns#"
   xmlns:svg="http://www.w3.org/2000/svg"
   xmlns="http://www.w3.org/2000/svg"
   version="1.1"
   width="300"
   height="41.399097"
   id="svg9766">
  <defs
     id="defs9768">
    <clipPath
       id="clipPath2735">
      <path
         d="m 0,841.89 595.276,0 L 595.276,0 0,0 0,841.89 Z"
         id="path2737" />
    </clipPath>
  </defs>
  <metadata
     id="metadata9771">
    <rdf:RDF>
      <cc:Work
         rdf:about="">
        <dc:format>image/svg+xml</dc:format>
        <dc:type
           rdf:resource="http://purl.org/dc/dcmitype/StillImage" />
        <dc:title></dc:title>
      </cc:Work>
    </rdf:RDF>
  </metadata>
  <g
     transform="translate(-252.84607,-507.82003)"
     id="layer1">
    <g
       transform="matrix(1.5349485,0,0,-1.5349485,-103.92017,1663.814)"
       id="g2731"
       style="fill:#000000">
      <g
         clip-path="url(#clipPath2735)"
         id="g2733"
         style="fill:#000000">
        <g
           transform="translate(300.6221,747.5894)"
           id="g2739"
           style="fill:#000000">
          <path
             d="m 0,0 c 2.575,0 4.747,-1.854 5.697,-3.04 0.295,0.66 0.678,1.382 1.141,2.116 0.811,1.298 1.688,2.364 2.415,2.998 L 6.187,0.576 C 4.976,1.311 2.998,2.074 0.924,2.074 c -3.892,0 -7.656,-2.23 -7.656,-6.539 0,-6.989 12.378,-5.105 12.378,-10.4 0,-2.009 -0.958,-3.222 -3.765,-3.222 -2.741,0 -6.078,2.43 -7.738,4.149 l -0.562,3.972 c 0,0 -0.012,-0.034 -0.03,-0.097 0.056,-0.958 -0.251,-2.548 -0.871,-4.266 -0.4,-1.108 -0.868,-2.09 -1.321,-2.838 2.134,-1.847 4.848,-3.568 8.641,-3.568 6.476,0 8.517,4.147 8.517,7.721 0,7.432 -12.028,5.743 -12.028,10.303 C -3.511,-0.603 -1.851,0 0,0"
             id="path2741"
             style="fill:#000000;fill-opacity:1;fill-rule:nonzero;stroke:none" />
        </g>
        <g
           transform="translate(284.0015,747.5894)"
           id="g2743"
           style="fill:#000000">
          <path
             d="m 0,0 c 2.577,0 4.75,-1.854 5.699,-3.04 0.294,0.66 0.679,1.382 1.142,2.116 C 7.65,0.374 8.527,1.44 9.255,2.074 L 6.191,0.576 C 4.978,1.311 3,2.074 0.926,2.074 c -3.892,0 -7.655,-2.23 -7.655,-6.539 0,-6.989 12.375,-5.105 12.375,-10.4 0,-2.009 -0.956,-3.222 -3.764,-3.222 -2.742,0 -6.078,2.43 -7.737,4.149 l -0.562,3.972 c 0,0 -0.012,-0.034 -0.032,-0.097 0.055,-0.958 -0.25,-2.548 -0.871,-4.266 -0.398,-1.108 -0.865,-2.09 -1.321,-2.838 2.137,-1.847 4.848,-3.568 8.641,-3.568 6.476,0 8.52,4.147 8.52,7.721 0,7.432 -12.03,5.743 -12.03,10.303 C -3.51,-0.603 -1.851,0 0,0"
             id="path2745"
             style="fill:#000000;fill-opacity:1;fill-rule:nonzero;stroke:none" />
        </g>
        <g
           transform="translate(241.4248,751.0718)"
           id="g2747"
           style="fill:#000000">
          <path
             d="m 0,0 2.079,0 c 4.855,0 6.241,-3.833 6.241,-7.702 0,-3.647 -1.092,-7.007 -4.853,-7.007 -1.935,0 -3.467,1.022 -3.467,2.481 L 0,0 z m 3.576,-16.755 c 6.572,0 10.294,3.506 10.294,9.272 0,5.183 -3.65,9.527 -11.391,9.527 l -1.091,0 c -1.499,-0.101 -3.116,-0.159 -4.8,-0.159 -1.686,0 -3.301,0.058 -4.801,0.159 l -0.743,0 c 0,0 0.497,-0.037 2.141,-0.895 C -5.17,0.295 -5.146,0 -5.146,0 l 0,-22.884 -3.85,-2.025 c 1.796,0.386 4.099,0.617 6.612,0.617 2.552,0 4.884,-0.237 6.691,-0.635 l 0.086,0 -4.393,2.043 0,6.456 c 1.059,-0.216 2.517,-0.327 3.576,-0.327"
             id="path2749"
             style="fill:#000000;fill-opacity:1;fill-rule:nonzero;stroke:none" />
        </g>
        <g
           transform="translate(357.5869,728.7007)"
           id="g2751"
           style="fill:#000000">
          <path
             d="m 0,0 c 4.371,0 6.349,3.032 6.349,8.167 0,6.444 -2.775,11.068 -7.72,11.068 -4.242,0 -6.443,-3.443 -6.443,-8.039 C -7.814,4.179 -3.955,0 0,0 m -0.541,21.022 c 6.89,0 11.74,-4.626 11.74,-11.61 0,-6.892 -5.584,-11.199 -12.283,-11.199 -7.781,0 -11.58,6.475 -11.58,11.866 0,7.147 5.582,10.943 12.123,10.943"
             id="path2753"
             style="fill:#000000;fill-opacity:1;fill-rule:nonzero;stroke:none" />
        </g>
        <g
           transform="translate(382.5518,728.7007)"
           id="g2755"
           style="fill:#000000">
          <path
             d="m 0,0 c 4.37,0 6.347,3.032 6.347,8.167 0,6.444 -2.778,11.068 -7.72,11.068 -4.242,0 -6.445,-3.443 -6.445,-8.039 C -7.818,4.179 -3.957,0 0,0 m -0.543,21.022 c 6.89,0 11.739,-4.626 11.739,-11.61 0,-6.892 -5.585,-11.199 -12.282,-11.199 -7.783,0 -11.581,6.475 -11.581,11.866 0,7.147 5.582,10.943 12.124,10.943"
             id="path2757"
             style="fill:#000000;fill-opacity:1;fill-rule:nonzero;stroke:none" />
        </g>
        <g
           transform="translate(418.6221,747.5776)"
           id="g2759"
           style="fill:#000000">
          <path
             d="m 0,0 c 2.573,0 4.748,-1.858 5.696,-3.041 0.294,0.658 0.679,1.382 1.141,2.116 0.813,1.297 1.69,2.364 2.416,2.997 L 6.188,0.576 c -1.212,0.733 -3.19,1.499 -5.263,1.499 -3.89,0 -7.659,-2.234 -7.659,-6.542 0,-6.986 12.378,-5.104 12.378,-10.401 0,-2.007 -0.956,-3.221 -3.763,-3.221 -2.745,0 -6.08,2.428 -7.74,4.151 l -0.562,3.972 c 0,0 -0.01,-0.035 -0.03,-0.099 0.055,-0.958 -0.251,-2.548 -0.871,-4.268 -0.398,-1.106 -0.866,-2.086 -1.323,-2.834 2.138,-1.849 4.849,-3.569 8.645,-3.569 6.474,0 8.516,4.148 8.516,7.719 0,7.434 -12.027,5.742 -12.027,10.308 C -3.511,-0.606 -1.853,0 0,0"
             id="path2761"
             style="fill:#000000;fill-opacity:1;fill-rule:nonzero;stroke:none" />
        </g>
        <g
           transform="translate(333.4063,729.2354)"
           id="g2763"
           style="fill:#000000">
          <path
             d="m 0,0 -3.187,0 0,12.141 2.923,0 c 3.642,0 5.728,-2.125 5.728,-6.071 C 5.464,1.48 3.527,0 0,0 m -3.187,21.663 2.468,0 c 2.693,0 3.907,-1.554 3.907,-3.604 0,-2.542 -1.329,-3.792 -4.021,-3.792 l -2.354,0 L -3.187,21.663 z m 6.565,-8.154 0,0.074 c 2.086,0.494 4.695,1.595 4.695,4.969 0,3.073 -2.002,5.237 -7.807,5.237 l -1.534,0 c -1.744,-0.137 -3.659,-0.213 -5.667,-0.213 -1.993,0 -3.894,0.074 -5.632,0.21 l 4.032,-2.123 0,-21.663 -4.103,-2.119 c 1.465,0.093 3.029,0.144 4.657,0.144 1.652,0 3.236,-0.053 4.714,-0.148 l 4.065,0 c 6.752,0 10.271,2.727 10.271,8.079 0,4.325 -3.062,6.946 -7.691,7.553"
             id="path2765"
             style="fill:#000000;fill-opacity:1;fill-rule:nonzero;stroke:none" />
        </g>
        <g
           transform="translate(399.5537,747.4268)"
           id="g2767"
           style="fill:#000000">
          <path
             d="m 0,0 0.668,0 0,-18.215 -3.904,-1.763 c 1.813,0.231 3.852,0.361 6.009,0.361 2.238,0 4.343,-0.139 6.206,-0.384 l 0.179,0 -3.992,1.786 0,18.215 0.67,0 c 3.476,0 5.445,-5.27 5.445,-5.27 l -0.052,0.437 c -0.348,1.22 -0.645,2.635 -0.847,4.162 -0.245,1.812 -0.324,3.515 -0.259,4.93 l -1.361,-2.473 -11.692,0 -1.371,2.496 -0.01,-0.079 c 0.082,-1.457 0.006,-3.234 -0.248,-5.134 -0.212,-1.574 -0.52,-3.037 -0.884,-4.278 L -5.449,-5.27 c 0,0 1.971,5.27 5.449,5.27"
             id="path2769"
             style="fill:#000000;fill-opacity:1;fill-rule:nonzero;stroke:none" />
        </g>
        <g
           transform="translate(313.7432,742.0522)"
           id="g2771"
           style="fill:#000000">
          <path
             d="m 0,0 0.953,0.607 -0.026,0 C 0.456,0.51 -0.137,0.452 -0.785,0.452 c -0.649,0 -1.243,0.058 -1.713,0.155 l -0.002,0 0.974,-0.607 0,-6.191 -0.974,-0.608 0.054,0 c 0.465,0.096 1.052,0.153 1.692,0.153 0.644,0 1.231,-0.057 1.699,-0.153 l 0.033,0 L 0,-6.191 0,0 Z"
             id="path2773"
             style="fill:#000000;fill-opacity:1;fill-rule:nonzero;stroke:none" />
        </g>
        <g
           transform="translate(320.8545,742.5601)"
           id="g2775"
           style="fill:#000000">
          <path
             d="m 0,0 c -0.495,0 -0.964,0.034 -1.364,0.095 l 0.966,-0.603 0,-4.426 -0.024,0 -3.515,5.018 C -4.216,0.058 -4.519,0.042 -4.832,0.042 c -0.378,0 -0.734,0.021 -1.06,0.058 l -0.048,0 0.909,-0.608 0,-6.191 -0.889,-0.595 c 0.388,0.052 0.823,0.083 1.289,0.083 0.491,0 0.948,-0.032 1.347,-0.091 l -0.934,0.603 0,4.739 0.024,0 2.787,-4.023 c 0.301,-0.434 0.672,-0.924 0.886,-1.324 l 0.935,0 0,6.799 0.884,0.592 C 0.912,0.03 0.469,0 0,0"
             id="path2777"
             style="fill:#000000;fill-opacity:1;fill-rule:nonzero;stroke:none" />
        </g>
        <g
           transform="translate(270.3696,727.3237)"
           id="g2779"
           style="fill:#000000">
          <path
             d="m 0,0 c 0.363,0.061 1.279,0.181 3.15,0.181 1.628,0 3.426,-0.073 4.551,-0.128 l -3.527,1.731 0,19.963 c -1.205,-0.128 -2.522,-0.2 -3.903,-0.2 -1.521,0 -2.967,0.085 -4.27,0.243 l 3.672,-1.789 0,-13.462 c 0,-2.997 -1.782,-4.498 -4.336,-4.498 -1.723,0 -3.828,0.926 -3.828,4.242 l 0,15.467 c -1.2,-0.124 -2.51,-0.193 -3.882,-0.193 -1.499,0 -2.922,0.083 -4.21,0.233 l -0.017,0 3.611,-1.789 0,-13.4 c 0,-4.593 2.68,-7.115 6.698,-7.115 3.255,0 5.074,1.501 5.998,2.491 L -0.038,0 0,0 Z"
             id="path2781"
             style="fill:#000000;fill-opacity:1;fill-rule:nonzero;stroke:none" />
        </g>
      </g>
    </g>
  </g>
</svg>
